<?xml version="1.0" encoding="UTF-8" standalone="no"?><svg xmlns="http://www.w3.org/2000/svg" xmlns:xlink="http://www.w3.org/1999/xlink" contentScriptType="application/ecmascript" contentStyleType="text/css" height="1131px" preserveAspectRatio="none" style="width:902px;height:1131px;background:#FFFFFF;" version="1.1" viewBox="0 0 902 1131" width="902px" zoomAndPan="magnify"><defs><filter height="300%" id="f1duajev7j5nqe" width="300%" x="-1" y="-1"><feGaussianBlur result="blurOut" stdDeviation="2.0"/><feColorMatrix in="blurOut" result="blurOut2" type="matrix" values="0 0 0 0 0 0 0 0 0 0 0 0 0 0 0 0 0 0 .4 0"/><feOffset dx="4.0" dy="4.0" in="blurOut2" result="blurOut3"/><feBlend in="SourceGraphic" in2="blurOut3" mode="normal"/></filter></defs><g><text fill="#000000" font-family="sans-serif" font-size="18" lengthAdjust="spacing" textLength="431" x="234.75" y="28.6855">SPF13 (Revised) vimrc Bootstrap File Load Sequence</text><ellipse cx="101" cy="72.7363" fill="#000000" filter="url(#f1duajev7j5nqe)" rx="10" ry="10" style="stroke:none;stroke-width:1.0;"/><rect fill="#FEFECE" filter="url(#f1duajev7j5nqe)" height="35.0938" rx="12.5" ry="12.5" style="stroke:#A80036;stroke-width:1.5;" width="124" x="39" y="102.7363"/><text fill="#000000" font-family="sans-serif" font-size="12" lengthAdjust="spacing" textLength="104" x="49" y="125.1934">load $HOME/.vimrc</text><rect fill="#FEFECE" filter="url(#f1duajev7j5nqe)" height="35.0938" rx="12.5" ry="12.5" style="stroke:#A80036;stroke-width:1.5;" width="147" x="27.5" y="929.1426"/><text fill="#000000" font-family="sans-serif" font-size="12" lengthAdjust="spacing" textLength="127" x="37.5" y="951.5996">load $HOME/.vimrc.fork</text><rect fill="#FEFECE" filter="url(#f1duajev7j5nqe)" height="35.0938" rx="12.5" ry="12.5" style="stroke:#A80036;stroke-width:1.5;" width="153" x="24.5" y="984.2363"/><text fill="#000000" font-family="sans-serif" font-size="12" lengthAdjust="spacing" textLength="133" x="34.5" y="1006.6934">load $HOME/.vimrc.local</text><rect fill="#FEFECE" filter="url(#f1duajev7j5nqe)" height="35.0938" rx="12.5" ry="12.5" style="stroke:#A80036;stroke-width:1.5;" width="160" x="21" y="1039.3301"/><text fill="#000000" font-family="sans-serif" font-size="12" lengthAdjust="spacing" textLength="140" x="31" y="1061.7871">load $HOME/.gvimrc.local</text><ellipse cx="101" cy="1104.4238" fill="#FFFFFF" filter="url(#f1duajev7j5nqe)" rx="10" ry="10" style="stroke:#000000;stroke-width:1.5;"/><line style="stroke:#000000;stroke-width:2.5;" x1="94.8128" x2="107.1872" y1="1098.2366" y2="1110.611"/><line style="stroke:#000000;stroke-width:2.5;" x1="107.1872" x2="94.8128" y1="1098.2366" y2="1110.611"/><line style="stroke:#000000;stroke-width:2.0;" x1="15" x2="15" y1="35.0957" y2="1114.4238"/><rect fill="#FEFECE" filter="url(#f1duajev7j5nqe)" height="35.0938" rx="12.5" ry="12.5" style="stroke:#A80036;stroke-width:1.5;" width="162" x="211.5" y="157.8301"/><text fill="#000000" font-family="sans-serif" font-size="12" lengthAdjust="spacing" textLength="142" x="221.5" y="180.2871">load $HOME/.vimrc.before</text><rect fill="#FEFECE" filter="url(#f1duajev7j5nqe)" height="35.0938" rx="12.5" ry="12.5" style="stroke:#A80036;stroke-width:1.5;" width="185" x="200" y="212.9238"/><text fill="#000000" font-family="sans-serif" font-size="12" lengthAdjust="spacing" textLength="165" x="210" y="235.3809">load $HOME/.vimrc.before.fork</text><rect fill="#FEFECE" filter="url(#f1duajev7j5nqe)" height="35.0938" rx="12.5" ry="12.5" style="stroke:#A80036;stroke-width:1.5;" width="191" x="197" y="268.0176"/><text fill="#000000" font-family="sans-serif" font-size="12" lengthAdjust="spacing" textLength="171" x="207" y="290.4746">load $HOME/.vimrc.before.local</text><line style="stroke:#000000;stroke-width:2.0;" x1="191" x2="191" y1="35.0957" y2="1114.4238"/><rect fill="#FEFECE" filter="url(#f1duajev7j5nqe)" height="35.0938" rx="12.5" ry="12.5" style="stroke:#A80036;stroke-width:1.5;" width="172" x="418.5" y="323.1113"/><text fill="#000000" font-family="sans-serif" font-size="12" lengthAdjust="spacing" textLength="152" x="428.5" y="345.5684">load $HOME/.vimrc.bundles</text><rect fill="#FEFECE" filter="url(#f1duajev7j5nqe)" height="35.0938" rx="12.5" ry="12.5" style="stroke:#A80036;stroke-width:1.5;" width="195" x="407" y="378.2051"/><text fill="#000000" font-family="sans-serif" font-size="12" lengthAdjust="spacing" textLength="175" x="417" y="400.6621">load $HOME/.vimrc.bundles.fork</text><rect fill="#FEFECE" filter="url(#f1duajev7j5nqe)" height="35.0938" rx="12.5" ry="12.5" style="stroke:#A80036;stroke-width:1.5;" width="201" x="404" y="433.2988"/><text fill="#000000" font-family="sans-serif" font-size="12" lengthAdjust="spacing" textLength="181" x="414" y="455.7559">load $HOME/.vimrc.bundles.local</text><line style="stroke:#000000;stroke-width:2.0;" x1="398" x2="398" y1="35.0957" y2="1114.4238"/><rect fill="#FEFECE" filter="url(#f1duajev7j5nqe)" height="35.0938" rx="12.5" ry="12.5" style="stroke:#A80036;stroke-width:1.5;" width="227" x="633.5" y="488.3926"/><text fill="#000000" font-family="sans-serif" font-size="12" lengthAdjust="spacing" textLength="207" x="643.5" y="510.8496">load $HOME/.vimrc.general.config.vim</text><rect fill="#FEFECE" filter="url(#f1duajev7j5nqe)" height="35.0938" rx="12.5" ry="12.5" style="stroke:#A80036;stroke-width:1.5;" width="195" x="649.5" y="543.4863"/><text fill="#000000" font-family="sans-serif" font-size="12" lengthAdjust="spacing" textLength="175" x="659.5" y="565.9434">load $HOME/.vimrc.ui.config.vim</text><rect fill="#FEFECE" filter="url(#f1duajev7j5nqe)" height="35.0938" rx="12.5" ry="12.5" style="stroke:#A80036;stroke-width:1.5;" width="239" x="627.5" y="598.5801"/><text fill="#000000" font-family="sans-serif" font-size="12" lengthAdjust="spacing" textLength="219" x="637.5" y="621.0371">load $HOME/.vimrc.statusline.config.vim</text><rect fill="#FEFECE" filter="url(#f1duajev7j5nqe)" height="35.0938" rx="12.5" ry="12.5" style="stroke:#A80036;stroke-width:1.5;" width="240" x="627" y="653.6738"/><text fill="#000000" font-family="sans-serif" font-size="12" lengthAdjust="spacing" textLength="220" x="637" y="676.1309">load $HOME/.vimrc.formatting.config.vim</text><rect fill="#FEFECE" filter="url(#f1duajev7j5nqe)" height="35.0938" rx="12.5" ry="12.5" style="stroke:#A80036;stroke-width:1.5;" width="252" x="621" y="708.7676"/><text fill="#000000" font-family="sans-serif" font-size="12" lengthAdjust="spacing" textLength="232" x="631" y="731.2246">load $HOME/.vimrc.keymapping.config.vim</text><rect fill="#FEFECE" filter="url(#f1duajev7j5nqe)" height="35.0938" rx="12.5" ry="12.5" style="stroke:#A80036;stroke-width:1.5;" width="202" x="646" y="763.8613"/><text fill="#000000" font-family="sans-serif" font-size="12" lengthAdjust="spacing" textLength="182" x="656" y="786.3184">load $HOME/.vimrc.gui.config.vim</text><rect fill="#FEFECE" filter="url(#f1duajev7j5nqe)" height="35.0938" rx="12.5" ry="12.5" style="stroke:#A80036;stroke-width:1.5;" width="199" x="647.5" y="818.9551"/><text fill="#000000" font-family="sans-serif" font-size="12" lengthAdjust="spacing" textLength="179" x="657.5" y="841.4121">load $HOME/.vimrc.functions.vim</text><rect fill="#FEFECE" filter="url(#f1duajev7j5nqe)" height="35.0938" rx="12.5" ry="12.5" style="stroke:#A80036;stroke-width:1.5;" width="226" x="634" y="874.0488"/><text fill="#000000" font-family="sans-serif" font-size="12" lengthAdjust="spacing" textLength="206" x="644" y="896.5059">load $HOME/.vimrc.plugins.config.vim</text><line style="stroke:#000000;stroke-width:2.0;" x1="615" x2="615" y1="35.0957" y2="1114.4238"/><line style="stroke:#000000;stroke-width:2.0;" x1="883" x2="883" y1="35.0957" y2="1114.4238"/><line style="stroke:#A80036;stroke-width:1.5;" x1="101" x2="101" y1="82.7363" y2="102.7363"/><polygon fill="#A80036" points="97,92.7363,101,102.7363,105,92.7363,101,96.7363" style="stroke:#A80036;stroke-width:1.0;"/><line style="stroke:#A80036;stroke-width:1.5;" x1="101" x2="101" y1="964.2363" y2="984.2363"/><polygon fill="#A80036" points="97,974.2363,101,984.2363,105,974.2363,101,978.2363" style="stroke:#A80036;stroke-width:1.0;"/><line style="stroke:#A80036;stroke-width:1.5;" x1="101" x2="101" y1="1019.3301" y2="1039.3301"/><polygon fill="#A80036" points="97,1029.3301,101,1039.3301,105,1029.3301,101,1033.3301" style="stroke:#A80036;stroke-width:1.0;"/><line style="stroke:#A80036;stroke-width:1.5;" x1="101" x2="101" y1="1074.4238" y2="1094.4238"/><polygon fill="#A80036" points="97,1084.4238,101,1094.4238,105,1084.4238,101,1088.4238" style="stroke:#A80036;stroke-width:1.0;"/><line style="stroke:#A80036;stroke-width:1.5;" x1="292.5" x2="292.5" y1="192.9238" y2="212.9238"/><polygon fill="#A80036" points="288.5,202.9238,292.5,212.9238,296.5,202.9238,292.5,206.9238" style="stroke:#A80036;stroke-width:1.0;"/><line style="stroke:#A80036;stroke-width:1.5;" x1="292.5" x2="292.5" y1="248.0176" y2="268.0176"/><polygon fill="#A80036" points="288.5,258.0176,292.5,268.0176,296.5,258.0176,292.5,262.0176" style="stroke:#A80036;stroke-width:1.0;"/><line style="stroke:#A80036;stroke-width:1.5;" x1="504.5" x2="504.5" y1="358.2051" y2="378.2051"/><polygon fill="#A80036" points="500.5,368.2051,504.5,378.2051,508.5,368.2051,504.5,372.2051" style="stroke:#A80036;stroke-width:1.0;"/><line style="stroke:#A80036;stroke-width:1.5;" x1="504.5" x2="504.5" y1="413.2988" y2="433.2988"/><polygon fill="#A80036" points="500.5,423.2988,504.5,433.2988,508.5,423.2988,504.5,427.2988" style="stroke:#A80036;stroke-width:1.0;"/><line style="stroke:#A80036;stroke-width:1.5;" x1="747" x2="747" y1="523.4863" y2="543.4863"/><polygon fill="#A80036" points="743,533.4863,747,543.4863,751,533.4863,747,537.4863" style="stroke:#A80036;stroke-width:1.0;"/><line style="stroke:#A80036;stroke-width:1.5;" x1="747" x2="747" y1="578.5801" y2="598.5801"/><polygon fill="#A80036" points="743,588.5801,747,598.5801,751,588.5801,747,592.5801" style="stroke:#A80036;stroke-width:1.0;"/><line style="stroke:#A80036;stroke-width:1.5;" x1="747" x2="747" y1="633.6738" y2="653.6738"/><polygon fill="#A80036" points="743,643.6738,747,653.6738,751,643.6738,747,647.6738" style="stroke:#A80036;stroke-width:1.0;"/><line style="stroke:#A80036;stroke-width:1.5;" x1="747" x2="747" y1="688.7676" y2="708.7676"/><polygon fill="#A80036" points="743,698.7676,747,708.7676,751,698.7676,747,702.7676" style="stroke:#A80036;stroke-width:1.0;"/><line style="stroke:#A80036;stroke-width:1.5;" x1="747" x2="747" y1="743.8613" y2="763.8613"/><polygon fill="#A80036" points="743,753.8613,747,763.8613,751,753.8613,747,757.8613" style="stroke:#A80036;stroke-width:1.0;"/><line style="stroke:#A80036;stroke-width:1.5;" x1="747" x2="747" y1="798.9551" y2="818.9551"/><polygon fill="#A80036" points="743,808.9551,747,818.9551,751,808.9551,747,812.9551" style="stroke:#A80036;stroke-width:1.0;"/><line style="stroke:#A80036;stroke-width:1.5;" x1="747" x2="747" y1="854.0488" y2="874.0488"/><polygon fill="#A80036" points="743,864.0488,747,874.0488,751,864.0488,747,868.0488" style="stroke:#A80036;stroke-width:1.0;"/><line style="stroke:#A80036;stroke-width:1.5;" x1="101" x2="101" y1="137.8301" y2="142.8301"/><line style="stroke:#A80036;stroke-width:1.5;" x1="101" x2="292.5" y1="142.8301" y2="142.8301"/><line style="stroke:#A80036;stroke-width:1.5;" x1="292.5" x2="292.5" y1="142.8301" y2="157.8301"/><polygon fill="#A80036" points="288.5,147.8301,292.5,157.8301,296.5,147.8301,292.5,151.8301" style="stroke:#A80036;stroke-width:1.0;"/><line style="stroke:#A80036;stroke-width:1.5;" x1="292.5" x2="292.5" y1="303.1113" y2="308.1113"/><line style="stroke:#A80036;stroke-width:1.5;" x1="292.5" x2="504.5" y1="308.1113" y2="308.1113"/><line style="stroke:#A80036;stroke-width:1.5;" x1="504.5" x2="504.5" y1="308.1113" y2="323.1113"/><polygon fill="#A80036" points="500.5,313.1113,504.5,323.1113,508.5,313.1113,504.5,317.1113" style="stroke:#A80036;stroke-width:1.0;"/><line style="stroke:#A80036;stroke-width:1.5;" x1="504.5" x2="504.5" y1="468.3926" y2="473.3926"/><line style="stroke:#A80036;stroke-width:1.5;" x1="504.5" x2="747" y1="473.3926" y2="473.3926"/><line style="stroke:#A80036;stroke-width:1.5;" x1="747" x2="747" y1="473.3926" y2="488.3926"/><polygon fill="#A80036" points="743,478.3926,747,488.3926,751,478.3926,747,482.3926" style="stroke:#A80036;stroke-width:1.0;"/><line style="stroke:#A80036;stroke-width:1.5;" x1="747" x2="747" y1="909.1426" y2="914.1426"/><line style="stroke:#A80036;stroke-width:1.5;" x1="747" x2="101" y1="914.1426" y2="914.1426"/><line style="stroke:#A80036;stroke-width:1.5;" x1="101" x2="101" y1="914.1426" y2="929.1426"/><polygon fill="#A80036" points="97,919.1426,101,929.1426,105,919.1426,101,923.1426" style="stroke:#A80036;stroke-width:1.0;"/><text fill="#000000" font-family="sans-serif" font-size="18" lengthAdjust="spacing" textLength="42" x="82" y="53.7813">vimrc</text><text fill="#000000" font-family="sans-serif" font-size="18" lengthAdjust="spacing" textLength="117" x="236" y="53.7813">Before Plugins</text><text fill="#000000" font-family="sans-serif" font-size="18" lengthAdjust="spacing" textLength="59" x="477" y="53.7813">Plugins</text><text fill="#000000" font-family="sans-serif" font-size="18" lengthAdjust="spacing" textLength="116" x="691" y="53.7813">Configurations</text><!--MD5=[d1521b3b53457e42e858bb9b3851759e]
@startuml
title SPF13 (Revised) vimrc Bootstrap File Load Sequence
|vimrc|
start
:load $HOME/.vimrc;
|Before Plugins|
:load $HOME/.vimrc.before;
:load $HOME/.vimrc.before.fork;
:load $HOME/.vimrc.before.local;
|Plugins|
:load $HOME/.vimrc.bundles;
:load $HOME/.vimrc.bundles.fork;
:load $HOME/.vimrc.bundles.local;
|Configurations|
:load $HOME/.vimrc.general.config.vim;
:load $HOME/.vimrc.ui.config.vim;
:load $HOME/.vimrc.statusline.config.vim;
:load $HOME/.vimrc.formatting.config.vim;
:load $HOME/.vimrc.keymapping.config.vim;
:load $HOME/.vimrc.gui.config.vim;
:load $HOME/.vimrc.functions.vim;
:load $HOME/.vimrc.plugins.config.vim;
|vimrc|
:load $HOME/.vimrc.fork;
:load $HOME/.vimrc.local;
:load $HOME/.gvimrc.local;
end
@enduml

PlantUML version 1.2021.13(Mon Nov 01 19:38:45 SGT 2021)
(GPL source distribution)
Java Runtime: Java(TM) SE Runtime Environment
JVM: Java HotSpot(TM) 64-Bit Server VM
Default Encoding: Cp1252
Language: en
Country: GB
--></g></svg>